# xmcd
#
# Track frame offsets: 
#        182
#        20125
#        27952
#        47762
#        60917
#        72040
#        88340
#        99622
#        108110
#        134992
#        151327
#        162370
#        171935
#        188582
#        210957
#
# Disc length: 3017 seconds
#
# Revision: 5
# Processed by: cddbd v1.5.2PL0 Copyright (c) Steve Scherf et al.
# Submitted via: ExactAudioCopyFreeDBPlugin 1.0
#
DISCID=c80bc70f
DTITLE=Paul Personne - Instantanés
DYEAR=1996
DGENRE=Blues
TTITLE0=Encore A l'Essai
TTITLE1=Ça m'va
TTITLE2=Miss Terre
TTITLE3=Funambule Déprim'
TTITLE4=Horizon (Instrumental)
TTITLE5=Plus Loin d'Ici
TTITLE6=Que l'Rock Ait Ton âme
TTITLE7=Sortie d'Secours (Instrumental)
TTITLE8=Où Est l'Paradis ?
TTITLE9=Lucy
TTITLE10=En Route (Instrumental)
TTITLE11=L'Hirondelle
TTITLE12=Attaqu'
TTITLE13=Doute Chronique
TTITLE14=Clin d'Oeil (Instrumental)
EXTD=YEAR: 1996 ID3G: 0
EXTT0=
EXTT1=
EXTT2=
EXTT3=
EXTT4=
EXTT5=
EXTT6=
EXTT7=
EXTT8=
EXTT9=
EXTT10=
EXTT11=
EXTT12=
EXTT13=
EXTT14=
PLAYORDER=
